<?xml version="1.0" encoding="UTF-8"?>
<!DOCTYPE svg PUBLIC "-//W3C//DTD SVG 1.1//EN" "http://www.w3.org/Graphics/SVG/1.1/DTD/svg11.dtd">
<svg version="1.1" xmlns="http://www.w3.org/2000/svg" xmlns:xlink="http://www.w3.org/1999/xlink" x="0" y="0" width="32" height="32" viewBox="0, 0, 32, 32">
  <g id="レイヤー_3">
    <g>
      <path d="M19.583,25.232 C20.453,24.362 21.323,23.151 21.777,22.13 C21.891,21.714 21.626,21.184 21.172,21.487 C20.567,22.508 19.848,23.492 18.978,24.324 C16.178,27.048 13.303,28.485 9.596,27.804 C7.97,27.502 6.457,26.631 5.473,25.156 C4.376,23.492 4.111,21.562 4.3,19.52 C4.489,17.061 5.359,14.488 6.305,12.446 C7.251,10.365 8.764,8.133 10.693,6.658 C11.639,5.939 12.963,5.41 14.174,5.183 C14.93,5.031 15.8,5.145 16.443,5.447 C17.2,5.788 17.919,6.355 18.562,7.036 C18.713,7.188 19.053,7.036 19.167,6.809 L19.091,6.317 C19.091,6.166 19.053,6.015 18.978,5.864 C17.919,4.426 16.103,3.707 14.401,3.859 C13.19,3.972 11.866,4.388 10.845,4.993 C9.331,5.901 8.007,7.188 6.986,8.701 C4.906,11.803 3.468,15.207 3.052,19.028 C2.863,20.73 2.976,22.395 3.468,23.946 C3.998,25.572 5.057,26.934 6.683,27.955 C8.386,29.015 10.429,29.317 12.396,29.09 C15.308,28.75 17.389,27.388 19.583,25.232 z" fill="#5A5A5A"/>
      <path d="M19.583,25.232 C20.453,24.362 21.323,23.151 21.777,22.13 C21.891,21.714 21.626,21.184 21.172,21.487 C20.567,22.508 19.848,23.492 18.978,24.324 C16.178,27.048 13.303,28.485 9.596,27.804 C7.97,27.502 6.457,26.631 5.473,25.156 C4.376,23.492 4.111,21.562 4.3,19.52 C4.489,17.061 5.359,14.488 6.305,12.446 C7.251,10.365 8.764,8.133 10.693,6.658 C11.639,5.939 12.963,5.41 14.174,5.183 C14.93,5.031 15.8,5.145 16.443,5.447 C17.2,5.788 17.919,6.355 18.562,7.036 C18.713,7.188 19.053,7.036 19.167,6.809 L19.091,6.317 C19.091,6.166 19.053,6.015 18.978,5.864 C17.919,4.426 16.103,3.707 14.401,3.859 C13.19,3.972 11.866,4.388 10.845,4.993 C9.331,5.901 8.007,7.188 6.986,8.701 C4.906,11.803 3.468,15.207 3.052,19.028 C2.863,20.73 2.976,22.395 3.468,23.946 C3.998,25.572 5.057,26.934 6.683,27.955 C8.386,29.015 10.429,29.317 12.396,29.09 C15.308,28.75 17.389,27.388 19.583,25.232 z" fill-opacity="0" stroke="#5A5A5A" stroke-width="1"/>
    </g>
    <g>
      <path d="M29.649,12.067 C29.906,11.971 30.259,11.522 29.842,11.233 C29.168,11.105 28.494,11.105 27.82,11.169 C27.21,11.233 26.601,11.361 26.023,11.425 C25.991,9.885 26.119,8.345 26.119,6.804 C26.119,5.906 26.248,5.071 26.633,4.301 C26.922,3.691 27.531,3.146 28.173,3.049 C28.494,2.985 28.815,2.985 29.136,3.082 C29.361,3.178 29.521,2.889 29.521,2.729 C29.136,2.311 28.59,2.183 28.109,2.119 C27.114,2.151 26.248,2.825 25.766,3.723 C25.253,4.654 25.124,5.745 25.06,6.836 C24.996,8.377 25.028,10.078 24.964,11.682 C23.809,12.035 22.268,12.677 21.466,13.191 C21.145,13.383 20.856,13.672 20.856,14.185 C20.953,14.346 21.145,14.57 21.402,14.506 C22.621,13.736 23.616,13.158 24.964,12.838 C24.996,15.597 25.092,20.893 25.028,23.556 C24.996,24.84 24.836,26.027 24.483,27.183 C24.13,28.338 23.552,29.493 22.846,30.456 C22.75,30.584 22.782,30.777 22.91,30.841 C23.038,30.905 23.231,30.905 23.456,30.745 C24.354,30.103 25.189,28.338 25.445,27.504 C25.83,26.284 25.959,24.968 26.055,23.653 C26.119,22.369 26.055,21.053 26.055,19.769 C26.055,17.908 25.927,14.217 26.023,12.549 C27.339,12.228 28.398,12.099 29.649,12.067 z" fill="#A89D2B"/>
      <path d="M29.649,12.067 C29.906,11.971 30.259,11.522 29.842,11.233 C29.168,11.105 28.494,11.105 27.82,11.169 C27.21,11.233 26.601,11.361 26.023,11.425 C25.991,9.885 26.119,8.345 26.119,6.804 C26.119,5.906 26.248,5.071 26.633,4.301 C26.922,3.691 27.531,3.146 28.173,3.049 C28.494,2.985 28.815,2.985 29.136,3.082 C29.361,3.178 29.521,2.889 29.521,2.729 C29.136,2.311 28.59,2.183 28.109,2.119 C27.114,2.151 26.248,2.825 25.766,3.723 C25.253,4.654 25.124,5.745 25.06,6.836 C24.996,8.377 25.028,10.078 24.964,11.682 C23.809,12.035 22.268,12.677 21.466,13.191 C21.145,13.383 20.856,13.672 20.856,14.185 C20.953,14.346 21.145,14.57 21.402,14.506 C22.621,13.736 23.616,13.158 24.964,12.838 C24.996,15.597 25.092,20.893 25.028,23.556 C24.996,24.84 24.836,26.027 24.483,27.183 C24.13,28.338 23.552,29.493 22.846,30.456 C22.75,30.584 22.782,30.777 22.91,30.841 C23.038,30.905 23.231,30.905 23.456,30.745 C24.354,30.103 25.189,28.338 25.445,27.504 C25.83,26.284 25.959,24.968 26.055,23.653 C26.119,22.369 26.055,21.053 26.055,19.769 C26.055,17.908 25.927,14.217 26.023,12.549 C27.339,12.228 28.398,12.099 29.649,12.067 z" fill-opacity="0" stroke="#A89C2A" stroke-width="1"/>
    </g>
  </g>
</svg>
